<svg xmlns="http://www.w3.org/2000/svg" xmlns:xlink="http://www.w3.org/1999/xlink" width="160" height="160" viewBox="0 0 160 160">
  <defs>
    <linearGradient id="linear-gradient" x1="-0.056" y1="-0.077" x2="1.272" y2="1.106" gradientUnits="objectBoundingBox">
      <stop offset="0" stop-color="#ff6534"/>
      <stop offset="1" stop-color="#db2d00"/>
    </linearGradient>
    <clipPath id="clip-path">
      <rect id="Rectangle_10310" data-name="Rectangle 10310" width="159.999" height="159.999" transform="translate(0 0)" fill="none" stroke="#fff" stroke-width="1"/>
    </clipPath>
  </defs>
  <g id="studio-app" transform="translate(-424.471 -686.839)">
    <g id="Group_16991" data-name="Group 16991" transform="translate(424.471 686.839)">
      <rect id="Rectangle_40369" data-name="Rectangle 40369" width="159.999" height="159.999" transform="translate(0.001 0.001)" fill="url(#linear-gradient)"/>
      <g id="Mask_Group_83" data-name="Mask Group 83" transform="translate(0 0)" clip-path="url(#clip-path)">
        <path id="Rectangle_10309" data-name="Rectangle 10309" d="M26,26V81.869H81.869V26H26M0,0H107.869V107.869H0Z" transform="translate(26.065 26.065)" fill="#fff" opacity="0.07"/>
        <path id="Ellipse_1626" data-name="Ellipse 1626" d="M72.668,26a46.668,46.668,0,1,0,46.668,46.668A46.721,46.721,0,0,0,72.668,26m0-26A72.668,72.668,0,1,1,0,72.668,72.668,72.668,0,0,1,72.668,0Z" transform="translate(5.136 7.332)" fill="#fff" opacity="0.07"/>
        <path id="Polygon_19" data-name="Polygon 19" d="M63.165,52.056,45,83.561H81.329L63.165,52.056M63.165,0,126.33,109.561H0Z" transform="translate(146.91 16.834) rotate(90)" fill="#fff" opacity="0.07"/>
      </g>
      <path id="Path_5977" data-name="Path 5977" d="M211.064,208.452l-28.107,6.523,8.369-6.523L157.032,192.2Z" transform="translate(-106.711 -126.469)" fill="#fff" opacity="0.8"/>
      <path id="Path_5977-2" data-name="Path 5977-2" d="M211.065,208.452H191.325L157.031,192.2Z" transform="translate(-106.713 -126.469)" fill="#fff"/>
    </g>
  </g>
</svg>
