<svg id="144252238" viewBox="0 0 200 166.0674894337132" height="166.0674894337132" width="200" style="width: 200px; height: 166.067px; position: absolute; top: 50%; left: 50%; transform: translate(-50%, -50%) scale(0.975507); z-index: 0; cursor: pointer;"><defs id="SvgjsDefs3099"><linearGradient id="SvgjsLinearGradient3106"><stop id="SvgjsStop3107" stop-color="#8f5e25" offset="0"></stop><stop id="SvgjsStop3108" stop-color="#fbf4a1" offset="0.5"></stop><stop id="SvgjsStop3109" stop-color="#8f5e25" offset="1"></stop></linearGradient><linearGradient id="SvgjsLinearGradient3110"><stop id="SvgjsStop3111" stop-color="#8f5e25" offset="0"></stop><stop id="SvgjsStop3112" stop-color="#fbf4a1" offset="0.5"></stop><stop id="SvgjsStop3113" stop-color="#8f5e25" offset="1"></stop></linearGradient><linearGradient id="SvgjsLinearGradient3114"><stop id="SvgjsStop3115" stop-color="#8f5e25" offset="0"></stop><stop id="SvgjsStop3116" stop-color="#fbf4a1" offset="0.5"></stop><stop id="SvgjsStop3117" stop-color="#8f5e25" offset="1"></stop></linearGradient></defs><g id="SvgjsG3100" featurekey="JQyOZB-0" transform="matrix(0.8421052631578947,0,0,0.8421052631578947,58.18694727044357,-10.25684236225329)" fill="url(#SvgjsLinearGradient3106)"><g xmlns="http://www.w3.org/2000/svg"><circle fill="none" cx="49.651" cy="72.829" r="1.847"></circle><path fill="none" d="M6.159,65.021h86.985V15.996H6.159V65.021z M56.586,46.886l11.51-4.933v-0.062l-11.51-4.932V33.67   l14.891,6.825v2.854l-14.891,6.825V46.886z M51.652,28.924h3.133l-6.639,22.49h-3.132h-0.001L51.652,28.924z M27.825,43.256v-2.668   l14.89-6.918v3.289l-11.26,4.932v0.062l11.26,4.933v3.288L27.825,43.256L27.825,43.256z"></path><path d="M94.318,12.18h-43.88h-1.495H5.063c-1.563,0-2.91,1.188-2.91,2.752v54.092v0.188v5.013v0.313   c0,1.563,1.347,2.877,2.91,2.877h35.146c-0.041,0.896-0.321,4.753-2.155,6.623c-1.445,1.474-3.453,2.854-2.669,3.563   c0.19,0.436,1.091,0.688,3.14,0.688c4.521,0,9.416,0,11.208,0c0.453,0,0.707,0,0.707,0c1.791,0,6.688,0,11.207,0   c2.334,0,3.15-0.382,3.158-0.953h-0.08v-0.188h-0.082c-0.104-0.771-1.662-1.907-2.84-3.105c-1.834-1.87-2.113-5.727-2.154-6.623   h34.674c1.564,0,2.83-1.313,2.83-2.877v-0.314v-5.012v-0.189V14.934C97.15,13.368,95.883,12.18,94.318,12.18z M49.651,74.676   c-1.021,0-1.847-0.824-1.847-1.846s0.826-1.848,1.847-1.848c1.02,0,1.847,0.826,1.847,1.848   C51.499,73.852,50.671,74.676,49.651,74.676z M93.145,65.021H6.159V15.996h86.985V65.021z"></path><polygon points="42.715,46.886 31.455,41.953 31.455,41.891 42.715,36.959 42.715,33.67 27.825,40.588 27.825,43.256    27.825,43.257 42.715,50.174  "></polygon><polygon points="48.146,51.414 54.785,28.924 51.652,28.924 45.013,51.414 45.014,51.414  "></polygon><polygon points="71.477,40.495 56.586,33.67 56.586,36.959 68.096,41.891 68.096,41.953 56.586,46.886 56.586,50.174    71.477,43.349  "></polygon></g></g><g id="SvgjsG3101" featurekey="SbCDzn-0" transform="matrix(4.510599506205808,0,0,4.510599506205808,-4.510599506205808,57.748310099586476)" fill="url(#SvgjsLinearGradient3110)"><path d="M7.92 20.28 q-3.38 0 -5.15 -1.88 t-1.77 -5.34 q0 -1.72 0.54 -3.07 t1.48 -2.28 t2.24 -1.41 t2.82 -0.48 q0.88 0 1.6 0.13 t1.26 0.3 t0.9 0.35 t0.52 0.28 l-0.9 2.52 q-0.64 -0.34 -1.49 -0.58 t-1.93 -0.24 q-0.72 0 -1.41 0.24 t-1.22 0.77 t-0.85 1.37 t-0.32 2.04 q0 0.96 0.21 1.79 t0.68 1.43 t1.23 0.95 t1.84 0.35 q0.68 0 1.22 -0.08 t0.96 -0.19 t0.74 -0.25 t0.58 -0.26 l0.86 2.5 q-0.66 0.4 -1.86 0.72 t-2.78 0.32 z M23.82 17.32 l0 2.68 l-9.26 0 l0 -13.86 l3.12 0 l0 11.18 l6.14 0 z M25.82 6.140000000000001 l3.12 0 l0 13.86 l-3.12 0 l0 -13.86 z M34.76 13.059999999999999 q0 1.02 0.25 1.84 t0.72 1.41 t1.15 0.91 t1.56 0.32 q0.86 0 1.55 -0.32 t1.16 -0.91 t0.72 -1.41 t0.25 -1.84 t-0.25 -1.85 t-0.72 -1.42 t-1.16 -0.91 t-1.55 -0.32 q-0.88 0 -1.56 0.33 t-1.15 0.92 t-0.72 1.42 t-0.25 1.83 z M45.34 13.059999999999999 q0 1.78 -0.53 3.13 t-1.45 2.26 t-2.19 1.37 t-2.73 0.46 q-1.42 0 -2.68 -0.46 t-2.2 -1.37 t-1.48 -2.26 t-0.54 -3.13 t0.56 -3.13 t1.51 -2.27 t2.2 -1.38 t2.63 -0.46 q1.42 0 2.68 0.46 t2.2 1.38 t1.48 2.27 t0.54 3.13 z"></path></g><g id="SvgjsG3102" featurekey="m0CQaI-0" transform="matrix(0.4518855037449263,0,0,0.4518855037449263,19.32217190598946,156.53270513231462)" fill="url(#SvgjsLinearGradient3114)"><path d="M2.9 13.2546 l3.16 0 c0.7809 0 1.4276 -0.26334 1.94 -0.79 c0.52 -0.53444 0.78 -1.203 0.78 -2.0058 c0 -0.80278 -0.24666 -1.4575 -0.74 -1.9642 s-1.1533 -0.76 -1.98 -0.76 l-3.16 0 l0 5.52 z M10.18 10.4946 c0 1.1907 -0.42334 2.1808 -1.27 2.97 c-0.82242 0.76666 -1.8391 1.15 -3.05 1.15 l-2.96 0 l0 5.38 l-1.4 0 l0 -13.6 l4.36 0 c1.203 0 2.2196 0.38 3.05 1.14 c0.84666 0.7749 1.27 1.7616 1.27 2.96 z M33.456 13.16 c0 -1.5333 -0.54666 -2.8466 -1.64 -3.94 s-2.4134 -1.64 -3.96 -1.64 c-1.5333 0 -2.8466 0.54666 -3.94 1.64 s-1.64 2.4066 -1.64 3.94 c0 1.5467 0.54666 2.8666 1.64 3.96 s2.4066 1.64 3.94 1.64 c1.5467 0 2.8666 -0.54666 3.96 -1.64 s1.64 -2.4134 1.64 -3.96 z M34.856 13.16 c0 0.96 -0.18334 1.8667 -0.55 2.72 s-0.86666 1.5967 -1.5 2.23 s-1.3767 1.1333 -2.23 1.5 s-1.76 0.55 -2.72 0.55 s-1.8633 -0.18334 -2.71 -0.55 s-1.5867 -0.86666 -2.22 -1.5 s-1.1333 -1.3767 -1.5 -2.23 s-0.55 -1.76 -0.55 -2.72 s0.18334 -1.8667 0.55 -2.72 s0.86666 -1.5933 1.5 -2.22 s1.3733 -1.1233 2.22 -1.49 s1.75 -0.55 2.71 -0.55 s1.8667 0.18334 2.72 0.55 s1.5967 0.86332 2.23 1.49 s1.1333 1.3667 1.5 2.22 s0.55 1.76 0.55 2.72 z M57.452 21.1 l-4.46 -11.84 l-4.46 11.84 l-3.18 -14.7 l1.44 0 l2.1 9.88 l4.1 -10.68 l4.08 10.68 l2.12 -9.88 l1.42 0 z M79.788 20 l-8.08 0 l0 -13.6 l8.08 0 l0 1.3 l-6.68 0 l0 4.84 l6.48 0 l0 1.32 l-6.48 0 l0 4.84 l6.68 0 l0 1.3 z M93.584 13.280000000000001 l3.16 0 c0.78806 0 1.4347 -0.26666 1.94 -0.8 c0.52 -0.54888 0.78 -1.2194 0.78 -2.0116 s-0.24666 -1.445 -0.74 -1.9583 s-1.1533 -0.77 -1.98 -0.77 l-3.16 0 l0 5.54 z M100.864 10.5 c0 1.1907 -0.42334 2.1808 -1.27 2.97 c-0.74118 0.69092 -1.6401 1.0705 -2.6968 1.1388 l4.1868 5.3912 l-1.88 0 l-3.9874 -5.38 l-1.6327 0 l0 5.38 l-1.4 0 l0 -13.6 l4.36 0 c1.2109 0 2.2276 0.38334 3.05 1.15 c0.84666 0.78926 1.27 1.7726 1.27 2.95 z M120.53999999999999 20 l-8.08 0 l0 -13.6 l8.08 0 l0 1.3 l-6.68 0 l0 4.84 l6.48 0 l0 1.32 l-6.48 0 l0 4.84 l6.68 0 l0 1.3 z M143.49599999999998 13.2 c0 0.98666 -0.18334 1.8967 -0.55 2.73 s-0.86332 1.55 -1.49 2.15 s-1.3667 1.07 -2.22 1.41 s-1.7667 0.51 -2.74 0.51 l-3.56 0 l0 -13.6 l3.56 0 c0.97334 0 1.8867 0.17 2.74 0.51 s1.5933 0.81 2.22 1.41 s1.1233 1.3167 1.49 2.15 s0.55 1.7433 0.55 2.73 z M142.13599999999997 13.2 c0 -1.5509 -0.54666 -2.8442 -1.64 -3.88 c-1.0696 -1.0133 -2.3896 -1.52 -3.96 -1.52 l-2.2 0 l0 10.8 l2.2 0 c1.5704 0 2.8904 -0.50666 3.96 -1.52 c1.0933 -1.0358 1.64 -2.3292 1.64 -3.88 z M178.96799999999996 16.21 c0 0.55334 -0.12668 1.0834 -0.38002 1.59 s-0.59334 0.92332 -1.02 1.25 c-0.8272 0.63334 -1.9339 0.95 -3.32 0.95 l-4.16 0 l0 -13.6 l3.68 0 c1.9919 0 3.2852 0.61334 3.88 1.84 c0.21334 0.44 0.32 0.88666 0.32 1.34 s-0.03666 0.81 -0.11 1.07 s-0.18 0.51 -0.32 0.75 c-0.3045 0.522 -0.6945 0.88866 -1.17 1.1 c0.7986 0.21296 1.4319 0.64296 1.9 1.29 c0.46666 0.6451 0.7 1.4518 0.7 2.42 z M176.56799999999996 9.8 c0 -1.3733 -0.93334 -2.06 -2.8 -2.06 l-2.28 0 l0 4.24 l2.68 0 c0.72 0 1.3 -0.18 1.74 -0.54 s0.66 -0.90666 0.66 -1.64 z M177.56799999999996 15.940000000000001 c0 -0.4 -0.07666 -0.75334 -0.23 -1.06 s-0.35334 -0.57 -0.6 -0.79 c-0.5307 -0.47334 -1.154 -0.71 -1.87 -0.71 l-3.38 0 l0 5.28 l3.16 0 c0.85888 0 1.5555 -0.24666 2.09 -0.74 c0.55334 -0.51076 0.83 -1.1708 0.83 -1.98 z M194.54399999999995 13.599599999999999 l0 6.4005 l-1.4 0 l0 -6.3971 l-5.16 -7.2028 l1.8 0 l4.06 5.82 l4.06 -5.82 l1.78 0 z M238.05599999999995 15.84 c-0.50468 1.3015 -1.3313 2.3516 -2.48 3.15 c-1.1605 0.80666 -2.4338 1.21 -3.82 1.21 c-1.8845 0 -3.4912 -0.69334 -4.82 -2.08 c-1.3067 -1.3635 -1.96 -2.9968 -1.96 -4.9 c0 -0.94666 0.17334 -1.8433 0.52 -2.69 s0.82666 -1.59 1.44 -2.23 c1.3289 -1.3867 2.9356 -2.08 4.82 -2.08 c1.3921 0 2.6588 0.39666 3.8 1.19 c1.1414 0.79344 1.9681 1.8368 2.48 3.13 l-1.54 0 c-0.73576 -1.3489 -1.8324 -2.2388 -3.29 -2.67 c-0.47334 -0.14 -1.0233 -0.21 -1.65 -0.21 s-1.2667 0.15 -1.92 0.45 s-1.2233 0.70334 -1.71 1.21 c-1.0333 1.0758 -1.55 2.3758 -1.55 3.9 c0 1.5109 0.51666 2.8042 1.55 3.88 c1.063 1.1067 2.3396 1.66 3.83 1.66 c1.0133 0 1.9433 -0.26666 2.79 -0.8 s1.5033 -1.24 1.97 -2.12 l1.54 0 z M250.95199999999997 13.280000000000001 l3.16 0 c0.78806 0 1.4347 -0.26666 1.94 -0.8 c0.52 -0.54888 0.78 -1.2194 0.78 -2.0116 s-0.24666 -1.445 -0.74 -1.9583 s-1.1533 -0.77 -1.98 -0.77 l-3.16 0 l0 5.54 z M258.23199999999997 10.5 c0 1.1907 -0.42334 2.1808 -1.27 2.97 c-0.74118 0.69092 -1.6401 1.0705 -2.6968 1.1388 l4.1868 5.3912 l-1.88 0 l-3.9874 -5.38 l-1.6327 0 l0 5.38 l-1.4 0 l0 -13.6 l4.36 0 c1.2109 0 2.2276 0.38334 3.05 1.15 c0.84666 0.78926 1.27 1.7726 1.27 2.95 z M277.90799999999996 20 l-8.08 0 l0 -13.6 l8.08 0 l0 1.3 l-6.68 0 l0 4.84 l6.48 0 l0 1.32 l-6.48 0 l0 4.84 l6.68 0 l0 1.3 z M292.5044 15 l4.9479 0 l-2.4684 -6.26 z M300.94399999999996 20 l-1.52 0 l-1.459 -3.7 l-5.9755 0 l-1.4655 3.7 l-1.52 0 l5.98 -14.54 z M309.09999999999997 7.66 l0 -1.3 l3.3 0 l1.4 0 l3.3 0 l0 1.3 l-3.3 0 l0 12.3 l-1.4 0 l0 -12.3 l-3.3 0 z M329.79599999999994 20 l-1.4 0 l0 -13.6 l1.4 0 l0 13.6 z M354.17199999999997 13.16 c0 -1.5333 -0.54666 -2.8466 -1.64 -3.94 s-2.4134 -1.64 -3.96 -1.64 c-1.5333 0 -2.8466 0.54666 -3.94 1.64 s-1.64 2.4066 -1.64 3.94 c0 1.5467 0.54666 2.8666 1.64 3.96 s2.4066 1.64 3.94 1.64 c1.5467 0 2.8666 -0.54666 3.96 -1.64 s1.64 -2.4134 1.64 -3.96 z M355.57199999999995 13.16 c0 0.96 -0.18334 1.8667 -0.55 2.72 s-0.86666 1.5967 -1.5 2.23 s-1.3767 1.1333 -2.23 1.5 s-1.76 0.55 -2.72 0.55 s-1.8633 -0.18334 -2.71 -0.55 s-1.5867 -0.86666 -2.22 -1.5 s-1.1333 -1.3767 -1.5 -2.23 s-0.55 -1.76 -0.55 -2.72 s0.18334 -1.8667 0.55 -2.72 s0.86666 -1.5933 1.5 -2.22 s1.3733 -1.1233 2.22 -1.49 s1.75 -0.55 2.71 -0.55 s1.8667 0.18334 2.72 0.55 s1.5967 0.86332 2.23 1.49 s1.1333 1.3667 1.5 2.22 s0.55 1.76 0.55 2.72 z"></path></g></svg>