<svg height="160" viewBox="0 0 160 160" width="160"
     xmlns="http://www.w3.org/2000/svg">
  <defs>
    <linearGradient gradientUnits="objectBoundingBox" id="linear-gradient" x1="-0.056" x2="1.272" y1="-0.077"
                    y2="1.106">
      <stop offset="0" stop-color="#ff6534"/>
      <stop offset="1" stop-color="#db2d00"/>
    </linearGradient>
    <clipPath id="clip-path">
      <rect data-name="Rectangle 10310" fill="none" height="159.999" id="Rectangle_10310" stroke="#fff"
            stroke-width="1" transform="translate(0 0)" width="159.999"/>
    </clipPath>
  </defs>
  <g id="studio-app" transform="translate(-424.471 -686.839)">
    <g data-name="Group 16991" id="Group_16991" transform="translate(424.471 686.839)">
      <rect data-name="Rectangle 40369" fill="url(#linear-gradient)" height="159.999" id="Rectangle_40369"
            transform="translate(0.001 0.001)" width="159.999"/>
      <g clip-path="url(#clip-path)" data-name="Mask Group 83" id="Mask_Group_83" transform="translate(0 0)">
        <path d="M26,26V81.869H81.869V26H26M0,0H107.869V107.869H0Z" data-name="Rectangle 10309" fill="#fff"
              id="Rectangle_10309" opacity="0.07" transform="translate(26.065 26.065)"/>
        <path
          d="M72.668,26a46.668,46.668,0,1,0,46.668,46.668A46.721,46.721,0,0,0,72.668,26m0-26A72.668,72.668,0,1,1,0,72.668,72.668,72.668,0,0,1,72.668,0Z"
          data-name="Ellipse 1626"
          fill="#fff"
          id="Ellipse_1626" opacity="0.07" transform="translate(5.136 7.332)"/>
        <path d="M63.165,52.056,45,83.561H81.329L63.165,52.056M63.165,0,126.33,109.561H0Z" data-name="Polygon 19"
              fill="#fff"
              id="Polygon_19" opacity="0.07" transform="translate(146.91 16.834) rotate(90)"/>
      </g>
      <path d="M211.064,208.452l-28.107,6.523,8.369-6.523L157.032,192.2Z" data-name="Path 5977" fill="#fff"
            id="Path_5977" opacity="0.8" transform="translate(-106.711 -126.469)"/>
      <path d="M211.065,208.452H191.325L157.031,192.2Z" data-name="Path 5977-2" fill="#fff"
            id="Path_5977-2" transform="translate(-106.713 -126.469)"/>
    </g>
  </g>
</svg>
